<?xml version="1.0" encoding="utf-8"?>
<!-- Generator: Adobe Illustrator 17.1.0, SVG Export Plug-In . SVG Version: 6.00 Build 0)  -->
<!DOCTYPE svg PUBLIC "-//W3C//DTD SVG 1.1//EN" "http://www.w3.org/Graphics/SVG/1.1/DTD/svg11.dtd">
<svg version="1.1" id="Layer_1" xmlns="http://www.w3.org/2000/svg" xmlns:xlink="http://www.w3.org/1999/xlink" x="0px" y="0px"
	 viewBox="0 0 800 600" enable-background="new 0 0 800 600" xml:space="preserve">
<path d="M375.7,499.1c0.3,0,0.6,0,0.9-0.1c1.3-0.4,2-1.8,1.5-3c-17-43.6,3.6-79.9,13.5-97.3c2.7-4.7,4.5-7.9,4.8-10
	c5.9-35.7,2.1-36.4,0.1-36.7c-1.8-0.3-5.7-2-7.7-3c-1.2-0.6-2.8-0.2-3.4,1c-0.6,1.2-0.2,2.6,1.1,3.2c0.5,0.3,4.8,2.3,8,3.2
	c0.7,3.8-0.9,19.2-3,31.7c-0.2,1.3-2.1,4.6-4.3,8.5c-10.2,18-31.6,55.5-13.8,101.1C373.7,498.5,374.7,499.1,375.7,499.1L375.7,499.1
	z"/>
<path d="M378.3,397.2c1.2,0,2.3-0.8,2.5-2c0-0.1,2.3-15.1,3.7-20.8c1.4-5.8,7.5-39.4,7.7-40.8l0.2-1.2l-0.9-0.9
	c-4.3-4.2-14.2,1.2-17.6,4.1c-1,0.9-1.1,2.4-0.1,3.3c1,1,2.6,1,3.6,0.1c2.8-2.4,7.3-4.2,9.4-4.4c-1.3,7.4-6.2,33.7-7.3,38.7
	c-1.4,5.9-3.7,20.5-3.8,21.1c-0.2,1.3,0.8,2.5,2.2,2.7C378.1,397.2,378.2,397.2,378.3,397.2L378.3,397.2z"/>
<path d="M363.8,397.2c1,0,1.9-0.5,2.3-1.3c0.3-0.6,7.2-14.3,8-25.4c0.7-10.7,4.2-45.3,4.2-45.7l0.1-1.5l-1.3-0.8
	c-0.4-0.2-4.1-2.2-8.2-1.1c-2.7,0.8-4.9,2.7-6.3,5.8c-1.5,3.2-1.9,7.5-2.4,12.4c-0.8,8.3-1.7,18.7-8.3,28.1
	c-0.8,1.1-0.4,2.5,0.8,3.3c1.2,0.7,2.8,0.4,3.5-0.7c7.3-10.4,8.3-21.4,9.1-30.3c0.4-4.6,0.8-8.5,1.9-10.9c0.8-1.8,1.9-2.8,3.2-3.2
	c0.9-0.3,1.9-0.1,2.7,0.1c-0.7,7.1-3.4,34.8-4.1,44.1c-0.7,10.2-7.4,23.5-7.5,23.7c-0.6,1.2-0.1,2.6,1.2,3.1
	C363,397.2,363.4,397.2,363.8,397.2L363.8,397.2z"/>
<path d="M330.1,502.3c0,0,0.1,0,0.1,0c1.4,0,2.5-1.1,2.4-2.4c-2-44.8-18.3-56.3-28-63.2c-3.9-2.7-5.7-4.1-5.7-6.1
	c0-7.5-2.9-16-5.5-23.5c-2.6-7.6-5.5-16.1-3-18.4c1.5-1.3,2.8-2,3.6-1.8c2.8,0.7,5.1,9.2,6.9,15.5c2.5,9.2,4.7,17.1,10.2,18.7
	c6.4,1.8,11.9-6.6,16.4-13.3c1-1.5,1.9-2.8,2.6-3.8c3.7-4.9,13.1-30.5,13.1-34.7c0-6.2,1.4-33.5,4.2-38.1c0.5-0.9,1.1-1,1.4-1.1
	c1.3-0.2,3.3,0.9,4.6,1.8c-0.4,5.4-2,27.2-2,37.4c0,10.9-4.7,23.9-4.8,24c-0.5,1.2,0.3,2.6,1.6,3c1.3,0.4,2.8-0.2,3.2-1.5
	c0.2-0.6,5.1-13.8,5.1-25.5c0-11.3,2.1-38,2.1-38.3l0.1-1.1l-0.9-0.8c-0.5-0.4-5.1-4.3-9.7-3.7c-1.5,0.2-3.6,1-5.1,3.4
	c-4.2,6.8-4.9,40.2-4.9,40.5c0,3-8.8,27.7-12.2,32c-0.8,1-1.7,2.4-2.8,4.1c-2.2,3.3-7.9,12-10.5,11.3c-2.7-0.8-5.1-9.2-6.8-15.4
	c-2.6-9.3-4.8-17.4-10.4-18.8c-2.7-0.7-5.5,0.3-8.5,3c-4.8,4.3-1.8,13.1,1.7,23.2c2.5,7.2,5.3,15.3,5.3,22c0,4.4,3.6,7,7.7,9.9
	c9,6.4,24.1,17,26,59.6C327.6,501.3,328.7,502.3,330.1,502.3L330.1,502.3z"/>
<path d="M193.2,441.9c0.4,0,0.7-0.1,1-0.2c10.7-4.5,26-27.8,28.1-43.1c9.2-64.6,37.3-83.4,59.2-87.8c27.2-5.4,55.9,9.2,62.5,19
	c0.7,1.1,2.3,1.4,3.5,0.8c1.2-0.7,1.6-2.1,0.8-3.2c-7-10.4-37.3-27.3-67.9-21.1c-23.6,4.7-53.6,24.5-63.2,91.7
	c-2.1,14.5-16.8,35.9-25.2,39.4c-1.3,0.5-1.8,1.9-1.3,3.1C191.3,441.4,192.2,441.9,193.2,441.9L193.2,441.9z"/>
<path d="M289.6,496.1c1.3,0,2.4-0.1,3.3-0.4c6.7-1.9,14.2-9.5,20.2-15.6c2.8-2.9,5.5-5.6,7.3-6.8c1.1-0.8,1.4-2.2,0.5-3.3
	c-0.8-1-2.4-1.3-3.6-0.5c-2.1,1.5-4.8,4.2-8,7.4c-5.3,5.4-12.6,12.8-17.9,14.3c-3.4,1-13.5-1.3-23-7.8c-7.8-5.4-21-17.9-20.7-40.6
	c0-1.3-1.1-2.4-2.5-2.4h0c-1.4,0-2.5,1-2.5,2.3c-0.3,24.7,14.1,38.4,22.7,44.4C274,493.2,283.6,496.1,289.6,496.1L289.6,496.1z"/>
<path d="M247.3,417.2c3.3,0,4.9-1.4,5.5-2.4c0.8-1.1,0.5-2.5-0.7-3.3c-1.2-0.7-2.7-0.4-3.5,0.7c0,0.1-0.6,0.3-1.8,0.2
	c-4-0.3-11.2-3.9-14.4-10.2c-2.8-5.5-1.8-11.8,3.1-18.2c4-5.2,7.8-7.7,11.3-7.3c6.2,0.8,11.3,10.2,12.7,13.8c0.5,1.2,2,1.8,3.3,1.4
	c1.3-0.4,2-1.8,1.5-3c-0.2-0.6-6.3-15.5-16.8-16.8c-5.6-0.7-11,2.4-16.1,9.2c-7.5,9.9-6.1,17.9-3.5,22.9
	c3.8,7.5,12.5,12.4,18.6,12.8C246.8,417.2,247.1,417.2,247.3,417.2L247.3,417.2z"/>
<path d="M238.8,496.1c0.6,0,1.2-0.2,1.7-0.6c1-0.9,1.1-2.4,0.2-3.3c-1-2.1,4.9-12.6,12.7-22.5c0.8-1,0.6-2.5-0.6-3.3
	c-1.1-0.8-2.7-0.5-3.5,0.5c-6.7,8.5-17.2,23.5-12.3,28.5C237.5,495.9,238.1,496.1,238.8,496.1L238.8,496.1z"/>
<path d="M397.8,323.5c0.8,0,1.5-0.3,2-1c0.1-0.1,9.5-11.9,16.2-17c1.1-0.8,1.2-2.3,0.3-3.3c-0.9-1-2.5-1.1-3.6-0.3
	c-7.2,5.5-16.7,17.4-17.1,17.9c-0.8,1-0.6,2.5,0.5,3.3C396.8,323.4,397.3,323.5,397.8,323.5L397.8,323.5z"/>
<path d="M371.5,308.8c1.3,0,2.5-1,2.5-2.2c0.2-3.5,1.5-13.3,4.7-16.9c0.9-1,0.7-2.5-0.3-3.3c-1.1-0.8-2.7-0.7-3.6,0.3
	c-4.8,5.4-5.7,18.1-5.8,19.6c-0.1,1.3,1,2.4,2.4,2.5C371.4,308.8,371.4,308.8,371.5,308.8L371.5,308.8z"/>
<path d="M346.2,308.8c0.1,0,0.3,0,0.4,0c1.4-0.2,2.3-1.4,2.1-2.7c-0.1-0.5-2.4-13.3-6.7-22.1c-0.6-1.2-2.1-1.7-3.4-1.2
	c-1.3,0.5-1.8,1.9-1.3,3.1c4,8.3,6.3,20.8,6.3,20.9C343.9,308,345,308.8,346.2,308.8L346.2,308.8z"/>
<path d="M410.1,342.1c0.5,0,1-0.1,1.4-0.4c0.1-0.1,13.4-8.2,21.4-10.4c1.4-0.4,2.1-1.7,1.7-2.9c-0.4-1.2-1.8-2-3.1-1.6
	c-8.7,2.3-22.2,10.6-22.8,11c-1.2,0.7-1.5,2.2-0.7,3.3C408.5,341.7,409.3,342.1,410.1,342.1L410.1,342.1z"/>
<path d="M414.5,363.6c0.3,0,0.5,0,0.8-0.1c0.1,0,7.9-2.3,16.8-1.9c1.4,0,2.6-0.9,2.7-2.2c0.1-1.3-1-2.4-2.4-2.5
	c-10-0.4-18.2,2-18.6,2.1c-1.3,0.4-2.1,1.7-1.6,3C412.4,362.9,413.4,363.6,414.5,363.6L414.5,363.6z"/>
<path d="M430,390c1.2,0,2.2-0.7,2.5-1.8c0.3-1.3-0.6-2.5-1.9-2.8c-9.7-2-18.3-0.9-18.7-0.8c-1.4,0.2-2.4,1.4-2.2,2.7
	c0.2,1.3,1.4,2.2,2.9,2c0.1,0,8.1-1,16.9,0.8C429.7,390,429.9,390,430,390L430,390z"/>
<ellipse fill="#EFEFEF" stroke="#8E8E8E" stroke-miterlimit="10" cx="448" cy="268" rx="8" ry="9"/>
<ellipse fill="#EFEFEF" stroke="#8E8E8E" stroke-miterlimit="10" cx="475" cy="230" rx="7" ry="9"/>
<ellipse fill="#EFEFEF" stroke="#8E8E8E" stroke-miterlimit="10" cx="502" cy="198.5" rx="8" ry="8.5"/>
<ellipse fill="#EFEFEF" stroke="#8E8E8E" stroke-miterlimit="10" cx="530.5" cy="162" rx="9.5" ry="11"/>
<ellipse fill="#EFEFEF" stroke="#8B8B8B" stroke-width="1.1638" stroke-miterlimit="10" cx="577.8" cy="80.5" rx="73.2" ry="53.5"/>
<path fill="#BC810C" d="M579.4,62.1c-0.8,0-1.3-0.6-1.3-1.3v-6.6c0-0.8,0.6-1.3,1.3-1.3s1.3,0.6,1.3,1.3v6.6
	C580.8,61.4,580.2,62.1,579.4,62.1z"/>
<path fill="#BC810C" d="M594.4,96.2c-0.3,0-0.7-0.1-1-0.4l-2.3-2.3c-0.6-0.6-0.6-1.3,0-1.9c0.6-0.6,1.3-0.6,1.9,0l2.3,2.3
	c0.6,0.6,0.6,1.3,0,1.9C595.1,96.1,594.8,96.2,594.4,96.2L594.4,96.2z"/>
<path fill="#BC810C" d="M579.4,107.4c-0.8,0-1.3-0.6-1.3-1.3v-6.6c0-0.8,0.6-1.3,1.3-1.3s1.3,0.6,1.3,1.3v6.6
	C580.8,106.9,580.2,107.4,579.4,107.4z"/>
<path fill="#BC810C" d="M605.7,81.3h-6.6c-0.8,0-1.3-0.6-1.3-1.3s0.6-1.3,1.3-1.3h6.6c0.8,0,1.3,0.6,1.3,1.3S606.3,81.3,605.7,81.3z
	"/>
<path fill="#BC810C" d="M562.4,81.3h-6.6c-0.8,0-1.3-0.6-1.3-1.3s0.6-1.3,1.3-1.3h6.6c0.8,0,1.3,0.6,1.3,1.3S563.2,81.3,562.4,81.3z
	"/>
<path fill="#BC810C" d="M579.4,81.3c-0.3,0-0.7-0.1-1-0.4c-0.6-0.6-0.6-1.3,0-1.9l14.7-14.6c0.6-0.6,1.3-0.6,1.9,0
	c0.6,0.6,0.6,1.3,0,1.9L580.4,81C580.1,81.2,579.8,81.3,579.4,81.3L579.4,81.3z"/>
<path fill="#BC810C" d="M598.7,60.8c-3,1.3-7,2.7-10.1,2.9l4.9,2.3l2.3,4.9C596,67.9,597.2,63.8,598.7,60.8L598.7,60.8z"/>
<path fill="#BC810C" d="M579.4,117.4c-5.6,0-11-1.2-16.1-3.7c-1-0.4-1.4-1.7-1-2.7s1.7-1.4,2.7-1c7.1,3.3,15.2,4.1,22.8,2.1
	c8.7-2.2,15.9-7.8,20.3-15.4c4.4-7.7,5.7-16.7,3.4-25.3c-2.2-8.7-7.8-15.9-15.4-20.3c-7.7-4.4-16.7-5.7-25.3-3.4
	c-14.1,3.8-24.1,16.2-24.7,30.9c0,1.1-1,2-2.1,1.9c-1.1,0-2-1-1.9-2.1c0.7-16.4,11.9-30.3,27.8-34.6c9.7-2.6,19.8-1.2,28.3,3.9
	c8.7,5,14.8,13.1,17.3,22.8c2.6,9.7,1.2,19.8-3.9,28.3c-5.1,8.6-13,14.9-22.7,17.4C585.8,117,582.7,117.4,579.4,117.4L579.4,117.4z"
	/>
<path fill="#BC810C" d="M544,81.3c-0.6,0-1.2-0.2-1.6-0.8l-8.9-11.2c-0.7-0.9-0.6-2.1,0.3-2.9c0.9-0.7,2.1-0.6,2.9,0.3l8.9,11.2
	c0.7,0.9,0.6,2.1-0.3,2.9C544.9,81.2,544.4,81.3,544,81.3z"/>
<path fill="#BC810C" d="M544,81.3c-0.6,0-1.1-0.2-1.6-0.8c-0.7-0.9-0.6-2.1,0.2-2.9l11.9-9.9c0.9-0.7,2.1-0.6,2.9,0.2
	c0.7,0.9,0.6,2.1-0.2,2.9l-11.9,9.9C545,81.2,544.4,81.3,544,81.3L544,81.3z"/>
<path fill="#BC810C" d="M569.4,69.1c-0.3,0-0.7-0.1-1-0.4l-2.3-2.3c-0.6-0.6-0.6-1.3,0-1.9c0.6-0.6,1.3-0.6,1.9,0l2.3,2.3
	c0.6,0.6,0.6,1.3,0,1.9C570.1,69,569.8,69.1,569.4,69.1L569.4,69.1z"/>
<path fill="#BC810C" d="M562.4,81.7h-6.6c-0.8,0-1.3-0.6-1.3-1.3c0-0.8,0.6-1.3,1.3-1.3h6.6c0.8,0,1.3,0.6,1.3,1.3
	C563.8,81.1,563.2,81.7,562.4,81.7z"/>
<path fill="#BC810C" d="M565,96.2c-0.3,0-0.7-0.1-1-0.4c-0.6-0.6-0.6-1.3,0-1.9l2.3-2.3c0.6-0.6,1.3-0.6,1.9,0
	c0.6,0.6,0.6,1.3,0,1.9l-2.3,2.3C565.7,96.1,565.3,96.2,565,96.2L565,96.2z"/>
</svg>
