<?xml version="1.0" encoding="utf-8"?>
<!-- Generator: Adobe Illustrator 17.1.0, SVG Export Plug-In . SVG Version: 6.00 Build 0)  -->
<!DOCTYPE svg PUBLIC "-//W3C//DTD SVG 1.1//EN" "http://www.w3.org/Graphics/SVG/1.1/DTD/svg11.dtd">
<svg version="1.1" id="Layer_1" xmlns="http://www.w3.org/2000/svg" xmlns:xlink="http://www.w3.org/1999/xlink" x="0px" y="0px"
	 viewBox="0 0 800 600" enable-background="new 0 0 800 600" xml:space="preserve">
<path fill-rule="evenodd" clip-rule="evenodd" d="M568.3,484.6H229.9c-5.7,0-10.4-4.6-10.4-10.4V135.7c0-5.7,4.6-10.4,10.4-10.4
	h338.4c5.7,0,10.4,4.6,10.4,10.4v338.4C578.7,479.9,574.1,484.6,568.3,484.6z M240.3,463.8H558V146.1H240.3V463.8z"/>
<path fill-rule="evenodd" clip-rule="evenodd" d="M262.4,295.8c-4.3,0-7.8-3.5-7.8-7.8V168.3c0-4.3,3.5-7.8,7.8-7.8h132.5
	c4.3,0,7.8,3.5,7.8,7.8c0,4.3-3.5,7.8-7.8,7.8H270.2v112C270.2,292.3,266.7,295.8,262.4,295.8"/>
<path fill-rule="evenodd" clip-rule="evenodd" d="M382.1,276.8c0,8.5-6.9,15.5-15.4,15.5c-8.6,0-15.5-6.9-15.5-15.5
	c0-8.5,6.9-15.4,15.5-15.4C375.2,261.4,382.1,268.3,382.1,276.8"/>
<path fill-rule="evenodd" clip-rule="evenodd" d="M534,280.4c-4.3,0-7.8-3.5-7.8-7.8V176H473c-4.3,0-7.8-3.5-7.8-7.8
	c0-4.3,3.5-7.8,7.8-7.8H534c4.3,0,7.8,3.5,7.8,7.8v104.4C541.8,276.9,538.3,280.4,534,280.4"/>
<path fill-rule="evenodd" clip-rule="evenodd" d="M483.5,305c-8.5,0-15.4-6.9-15.4-15.4s6.9-15.4,15.4-15.4
	c8.5,0,15.5,6.9,15.5,15.4S492,305,483.5,305"/>
<path fill-rule="evenodd" clip-rule="evenodd" d="M480.7,406.4c-8.5,0-15.4-6.9-15.4-15.4c0-8.5,6.9-15.4,15.4-15.4
	c8.5,0,15.5,6.9,15.5,15.4C496.2,399.5,489.2,406.4,480.7,406.4"/>
<path fill-rule="evenodd" clip-rule="evenodd" d="M533.2,448.6H402.8c-4.3,0-7.8-3.5-7.8-7.8c0-4.3,3.5-7.8,7.8-7.8h122.6v-71.7
	c0-4.3,3.5-7.8,7.8-7.8c4.3,0,7.8,3.5,7.8,7.8v79.5C541,445.1,537.5,448.6,533.2,448.6"/>
<path fill-rule="evenodd" clip-rule="evenodd" d="M431.7,413.5c-4.3,0-7.8-3.5-7.8-7.8V224.3h-73.8c-4.3,0-7.8-3.5-7.8-7.8
	c0-4.3,3.5-7.8,7.8-7.8h81.6c4.3,0,7.8,3.5,7.8,7.8v189.2C439.5,410,436,413.5,431.7,413.5"/>
<path fill-rule="evenodd" clip-rule="evenodd" d="M387.9,393.5h-81.6c-4.3,0-7.8-3.5-7.8-7.8V273.6c0-4.3,3.5-7.8,7.8-7.8
	c4.3,0,7.8,3.5,7.8,7.8v104.4h73.8c4.3,0,7.8,3.5,7.8,7.8C395.6,390,392.2,393.5,387.9,393.5"/>
<path fill-rule="evenodd" clip-rule="evenodd" d="M333.6,447.6h-71.2c-4.3,0-7.8-3.5-7.8-7.8v-74.1c0-4.3,3.5-7.8,7.8-7.8
	c4.3,0,7.8,3.5,7.8,7.8v66.3h63.4c4.3,0,7.8,3.5,7.8,7.8C341.4,444.1,337.9,447.6,333.6,447.6"/>
<path d="M480.7,348.7L480.7,348.7c-1.4,0-2.8-0.6-3.8-1.6c-1-1-1.6-2.4-1.6-3.8c0-1.4,0.6-2.8,1.6-3.8c1-1,2.4-1.6,3.8-1.6
	s2.8,0.6,3.8,1.6c1,1,1.6,2.4,1.6,3.8c0,1.4-0.6,2.8-1.6,3.8C483.5,348.1,482.1,348.7,480.7,348.7L480.7,348.7z M480.7,337.4
	c-1.6,0-3.1,0.6-4.2,1.7c-1.1,1.1-1.7,2.6-1.7,4.2c0,1.6,0.6,3.1,1.7,4.2c1.1,1.1,2.6,1.7,4.2,1.7s3.1-0.6,4.2-1.7
	c1.1-1.1,1.7-2.6,1.7-4.2c0-1.6-0.6-3.1-1.7-4.2S482.3,337.4,480.7,337.4L480.7,337.4z"/>
<path d="M494.6,344.5l-3,1.1c-0.1,0-0.2,0.1-0.2,0.2c-0.3,1.2-0.7,2.4-1.4,3.4c-0.1,0.1-0.1,0.2,0,0.3l1.3,2.8h0
	c-0.5,0.6-1,1.1-1.6,1.6l-2.8-1.3v0c-0.1,0-0.2,0-0.3,0c-1,0.7-2.2,1.1-3.4,1.4c-0.1,0-0.2,0.1-0.2,0.2l-1.1,3
	c-0.8,0.1-1.5,0.1-2.3,0l-1.1-3c0-0.1-0.1-0.2-0.2-0.2c-1.2-0.3-2.4-0.7-3.4-1.4c-0.1-0.1-0.2-0.1-0.3,0l-2.8,1.3v0
	c-0.6-0.5-1.1-1-1.6-1.6l1.3-2.8h0c0-0.1,0-0.2,0-0.3c-0.7-1-1.1-2.2-1.4-3.4c0-0.1-0.1-0.2-0.2-0.2l-3-1.1c0-0.4,0-0.8,0-1.2
	s0-0.8,0-1.2l3-1.1c0.1,0,0.2-0.1,0.2-0.2c0.3-1.2,0.7-2.4,1.4-3.4c0.1-0.1,0.1-0.2,0-0.3l-1.3-2.8h0c0.5-0.6,1-1.1,1.6-1.6l2.8,1.3
	v0c0.1,0,0.2,0,0.3,0c1-0.7,2.2-1.1,3.4-1.4c0.1,0,0.2-0.1,0.2-0.2l1.1-3c0.8-0.1,1.5-0.1,2.3,0l1.1,3c0,0.1,0.1,0.2,0.2,0.2
	c1.2,0.3,2.4,0.7,3.4,1.4c0.1,0.1,0.2,0.1,0.3,0l2.8-1.3v0c0.6,0.5,1.1,1,1.6,1.6l-1.3,2.8h0c0,0.1,0,0.2,0,0.3
	c0.7,1,1.1,2.2,1.4,3.4c0,0.1,0.1,0.2,0.2,0.2l3,1.1c0,0.4,0,0.8,0,1.2S494.6,344.1,494.6,344.5z M495.2,342c0-0.1-0.1-0.2-0.2-0.3
	l-3-1.1c-0.3-1.2-0.7-2.3-1.4-3.3l1.4-2.9c0.1-0.1,0-0.2,0-0.3c-0.6-0.7-1.3-1.4-2-2c-0.1-0.1-0.2-0.1-0.3,0l-2.9,1.4
	c-1-0.6-2.1-1.1-3.3-1.4l-1.1-3c0-0.1-0.1-0.2-0.3-0.2c-0.9-0.1-1.9-0.1-2.8,0c-0.1,0-0.2,0.1-0.3,0.2l-1.1,3
	c-1.2,0.3-2.3,0.7-3.3,1.4l-2.9-1.4c-0.1-0.1-0.2,0-0.3,0c-0.7,0.6-1.4,1.3-2,2c-0.1,0.1-0.1,0.2,0,0.3l1.4,2.9
	c-0.6,1-1.1,2.1-1.4,3.3l-3,1.1c-0.1,0-0.2,0.1-0.2,0.3c0,0.5-0.1,1-0.1,1.4c0,0.5,0,0.9,0.1,1.4c0,0.1,0.1,0.2,0.2,0.3l3,1.1
	c0.3,1.2,0.7,2.3,1.4,3.3l-1.4,2.9c-0.1,0.1,0,0.2,0,0.3c0.6,0.7,1.3,1.4,2,2c0.1,0.1,0.2,0.1,0.3,0l2.9-1.4c1,0.6,2.1,1.1,3.3,1.4
	l1.1,3c0,0.1,0.1,0.2,0.3,0.2c0.5,0,1,0.1,1.4,0.1c0.5,0,0.9,0,1.4-0.1c0.1,0,0.2-0.1,0.3-0.2l1.1-3c1.2-0.3,2.3-0.7,3.3-1.4
	l2.9,1.4c0.1,0.1,0.2,0,0.3,0c0.7-0.6,1.4-1.3,2-2c0.1-0.1,0.1-0.2,0-0.3l-1.4-2.9c0.6-1,1.1-2.1,1.4-3.3l3-1.1
	c0.1,0,0.2-0.1,0.2-0.3c0-0.5,0.1-1,0.1-1.4C495.3,342.9,495.2,342.4,495.2,342z"/>
<path d="M355.8,336.7c-2.2,0-4-1.7-4-4c0-2.2,1.7-4,4-4c2.2,0,4,1.7,4,4C359.8,334.9,358,336.7,355.8,336.7z M355.8,326.4
	c-3.5,0-6.4,2.9-6.4,6.4c0,3.5,2.9,6.4,6.4,6.4c3.5,0,6.4-2.9,6.4-6.4C362.2,329.2,359.3,326.4,355.8,326.4z"/>
<path d="M355.8,340.3c-4.2,0-7.5-3.4-7.5-7.5c0-4.2,3.4-7.5,7.5-7.5c4.2,0,7.5,3.4,7.5,7.5C363.3,336.9,360,340.3,355.8,340.3z
	 M363.2,340c1.3-1.3,3.2-1.6,4.8-0.8c0.4-0.8,0.8-1.7,1.1-2.7c-1.6-0.5-2.8-2.1-2.8-3.9c0-1.8,1.1-3.3,2.8-3.9
	c-0.3-0.9-0.7-1.8-1.1-2.6c-1.5,0.7-3.4,0.4-4.7-0.8s-1.5-3.1-0.8-4.7c-0.8-0.4-1.7-0.8-2.7-1.1c-0.6,1.6-2.1,2.7-3.9,2.7
	s-3.3-1.1-3.9-2.7c-0.9,0.3-1.8,0.7-2.7,1.1c0.7,1.5,0.4,3.4-0.8,4.7s-3.1,1.5-4.7,0.8c-0.4,0.8-0.8,1.7-1.1,2.6
	c1.6,0.5,2.8,2.1,2.8,3.9c0,1.8-1.2,3.4-2.8,3.9c0.3,0.9,0.7,1.8,1.1,2.7c1.6-0.8,3.5-0.5,4.8,0.8c1.3,1.3,1.6,3.2,0.8,4.8
	c0.8,0.4,1.7,0.8,2.7,1.1c0.5-1.7,2.1-2.9,4-2.9c1.8,0,3.4,1.2,4,2.9c0.9-0.3,1.8-0.7,2.7-1.1C361.6,343.2,361.9,341.3,363.2,340
	L363.2,340z"/>
<path d="M374.6,349.9c-0.6,1.5-2.3,2.2-3.8,1.6c-1.5-0.6-2.2-2.3-1.6-3.8c0.6-1.5,2.3-2.2,3.8-1.6
	C374.5,346.8,375.2,348.4,374.6,349.9z M373.7,344.4c-2.4-1-5.2,0.2-6.2,2.5c-1,2.4,0.1,5.2,2.5,6.2c2.4,1,5.2-0.1,6.2-2.5
	C377.3,348.2,376.1,345.5,373.7,344.4z"/>
<path d="M377,351c-1.2,2.9-4.4,4.2-7.3,3c-2.9-1.2-4.2-4.4-3-7.3c1.2-2.8,4.4-4.2,7.3-3C376.9,344.9,378.2,348.1,377,351z
	 M379,345.8c-0.5-1.2-0.2-2.6,0.8-3.4c-0.4-0.5-0.9-1-1.5-1.5c-0.9,0.9-2.2,1.2-3.4,0.8s-1.9-1.7-1.9-2.9c-0.7-0.1-1.4-0.1-2.1,0
	c0.1,1.2-0.7,2.4-1.9,2.9c-1.2,0.5-2.6,0.2-3.5-0.8c-0.5,0.4-1,0.9-1.5,1.5c0.9,0.9,1.3,2.2,0.8,3.5c-0.5,1.2-1.7,1.9-3,1.9
	c-0.1,0.7-0.1,1.4,0,2.1c1.3-0.1,2.5,0.7,3,1.9c0.5,1.2,0.2,2.7-0.9,3.5c0.4,0.5,0.9,1.1,1.5,1.5c0.9-1,2.3-1.4,3.5-0.8
	s2,1.8,1.9,3.1c0.7,0.1,1.4,0.1,2.1,0c-0.1-1.3,0.7-2.5,1.9-3.1c1.2-0.5,2.7-0.2,3.5,0.8c0.5-0.4,1-0.9,1.5-1.5
	c-1-0.9-1.3-2.2-0.8-3.5c0.5-1.2,1.7-1.9,3-1.9c0.1-0.7,0.1-1.4,0-2.1C380.8,347.8,379.5,347.1,379,345.8L379,345.8z"/>
<path d="M388.5,334.7c-0.8-0.3-1.7-0.3-2.5-0.1c-0.4,0.2-0.9,0.4-1.2,0.7l-0.2,0.2c-0.9,0.9-1.2,2.2-0.9,3.4c-0.3,0.2-0.7,0.3-1,0.3
	c-0.5-1.2-1.7-2-3.1-2.1c-0.5,0-1,0.1-1.4,0.2c-0.8,0.3-1.5,0.8-1.9,1.5c-0.3-0.1-0.7-0.3-1-0.4c0.4-1.2,0.2-2.7-0.7-3.6
	c-0.9-1-2.3-1.4-3.6-1.1c-0.1-0.3-0.3-0.7-0.4-1c1.2-0.5,2-1.7,2.1-3.1c0.1-1.4-0.6-2.7-1.8-3.3c0.1-0.2,0.2-0.3,0.2-0.5
	c0,0,0.1,0,0.1,0.1c0.1-0.2,0.2-0.3,0.2-0.4c0.8,0.3,1.6,0.3,2.4,0c0.4-0.2,0.9-0.4,1.2-0.7c0.1-0.1,0.1-0.1,0.2-0.2
	c0.9-0.9,1.2-2.2,1-3.4c0.3-0.1,0.7-0.3,1-0.3c0.5,1.2,1.7,2,3,2.1c0.5,0.1,1-0.1,1.4-0.2c0.8-0.3,1.4-0.8,1.8-1.5
	c0.3,0.2,0.7,0.3,1,0.4c-0.4,1.2-0.2,2.6,0.7,3.6c0.9,1,2.3,1.4,3.5,1.1c0.2,0.3,0.3,0.7,0.4,1c-1.2,0.5-2,1.7-2.1,3.1
	c-0.1,1.4,0.6,2.7,1.8,3.3C388.8,334.1,388.6,334.4,388.5,334.7L388.5,334.7z M388.2,330.5c0.1-1.1,0.8-2,1.8-2.3l0.5-0.2l-0.1-0.5
	c-0.2-0.7-0.4-1.4-0.8-2.1l-0.2-0.4l-0.5,0.2c-1,0.4-2.1,0.1-2.8-0.7c-0.7-0.8-0.8-1.9-0.3-2.9l0.2-0.4l-0.4-0.3
	c-0.7-0.4-1.3-0.7-2-1l-0.5-0.1l-0.2,0.5c-0.3,0.7-0.8,1.1-1.5,1.4c-0.3,0.1-0.7,0.2-1,0.1c-1-0.1-1.9-0.8-2.3-1.8l-0.2-0.5
	l-0.5,0.1c-0.7,0.2-1.4,0.4-2.1,0.7l-0.4,0.3l0.2,0.5c0.4,1,0.1,2.1-0.7,2.8c-0.3,0.2-0.5,0.4-0.9,0.5c-0.7,0.2-1.4,0.2-2.1-0.2
	l-0.4-0.3v0.1l-0.1-0.1l-0.3,0.4c-0.4,0.7-0.7,1.3-1,2l-0.2,0.5l0.5,0.2c1,0.4,1.6,1.4,1.6,2.5c-0.1,1.1-0.8,2-1.8,2.3l-0.5,0.2
	l0.1,0.5c0.2,0.7,0.4,1.4,0.8,2.1l0.2,0.5l0.5-0.2c1-0.4,2.1-0.1,2.8,0.7c0.7,0.8,0.9,1.9,0.3,2.9L374,339l0.4,0.3
	c0.7,0.4,1.3,0.7,2,1l0.5,0.2l0.2-0.5c0.3-0.7,0.8-1.1,1.5-1.4c0.3-0.1,0.7-0.2,1-0.2c1,0.1,1.9,0.8,2.3,1.8l0.2,0.5l0.5-0.1
	c0.7-0.2,1.4-0.4,2.1-0.7l0.5-0.2l-0.2-0.5c-0.4-1-0.1-2.1,0.7-2.8c0.3-0.2,0.5-0.4,0.9-0.5c0.7-0.2,1.4-0.2,2.1,0.2l0.4,0.2v-0.1
	l0.1-0.2l0.2-0.3c0.2-0.4,0.4-0.8,0.6-1.1c0.2-0.3,0.3-0.6,0.4-0.9l0.2-0.5l-0.5-0.2C388.8,332.6,388.1,331.6,388.2,330.5
	L388.2,330.5z"/>
<path d="M380.8,334c-0.3,0.1-0.7,0.1-1,0.1h-0.2c-0.4-0.1-0.8,0.2-0.8,0.7c-0.1,0.4,0.2,0.8,0.7,0.8h0.3h0.3c0.3,0,0.7-0.1,1-0.1
	c0.4-0.1,0.7-0.4,0.6-0.9C381.5,334.1,381.2,333.9,380.8,334L380.8,334z"/>
<path d="M383.2,332.4c-0.2,0.3-0.5,0.7-0.8,0.9c-0.3,0.2-0.4,0.7-0.1,1c0.2,0.2,0.4,0.3,0.6,0.3c0.2,0,0.3-0.1,0.4-0.2
	c0.4-0.3,0.8-0.8,1.1-1.2c0.2-0.3,0.2-0.8-0.2-1C383.9,331.9,383.4,332,383.2,332.4L383.2,332.4z"/>
<path d="M384.5,328.6c-0.4,0.1-0.7,0.4-0.6,0.8c0.1,0.2,0.1,0.4,0.1,0.6v0.2c0,0.1,0,0.3-0.1,0.4c-0.1,0.4,0.2,0.8,0.6,0.8h0.1
	c0.3,0,0.7-0.3,0.7-0.6c0-0.2,0.1-0.3,0.1-0.5V330c0-0.3,0-0.5-0.1-0.9C385.3,328.8,384.9,328.6,384.5,328.6L384.5,328.6z"/>
<path d="M383.2,327.8c0.2,0.2,0.4,0.3,0.6,0.3c0.2,0,0.3-0.1,0.4-0.2c0.3-0.2,0.4-0.7,0.2-1c-0.3-0.4-0.7-0.9-1.1-1.2
	c-0.3-0.2-0.8-0.2-1,0.2c-0.2,0.3-0.2,0.8,0.2,1C382.7,327.2,382.9,327.4,383.2,327.8L383.2,327.8z"/>
<path d="M379,326.2c0.4-0.1,0.8-0.2,1.2-0.1c0.2,0,0.3,0,0.5,0.1c0.4,0.1,0.8-0.2,0.8-0.6c0.1-0.4-0.2-0.8-0.6-0.8
	c-0.2-0.1-0.4-0.1-0.7-0.1c-0.5-0.1-1.1,0-1.6,0.2c-0.4,0.1-0.6,0.5-0.5,0.9c0.1,0.3,0.4,0.5,0.7,0.5
	C378.9,326.3,379,326.3,379,326.2L379,326.2z"/>
<path d="M375.6,328.2c0.1,0.1,0.3,0.1,0.4,0.1c0.2,0,0.5-0.1,0.6-0.3c0.2-0.3,0.5-0.7,0.8-0.9c0.3-0.3,0.3-0.7,0.1-1
	c-0.3-0.3-0.7-0.3-1-0.1c-0.4,0.4-0.8,0.8-1.1,1.2C375.2,327.6,375.3,328.1,375.6,328.2L375.6,328.2z"/>
<path d="M376.2,331c-0.1-0.2-0.1-0.4-0.1-0.7V330v-0.2v-0.1c0.1-0.4-0.3-0.8-0.7-0.8c-0.4-0.1-0.8,0.3-0.8,0.7v0.1v0.3v0.3
	c0,0.3,0.1,0.6,0.1,0.9c0.1,0.3,0.4,0.6,0.7,0.6h0.2C376,331.8,376.2,331.4,376.2,331L376.2,331z"/>
<path d="M377.8,333.4c-0.3-0.2-0.7-0.5-0.9-0.8c-0.3-0.3-0.7-0.4-1-0.1c-0.3,0.3-0.4,0.7-0.1,1c0.3,0.4,0.8,0.8,1.2,1.1
	c0.1,0.1,0.3,0.1,0.4,0.1c0.2,0,0.5-0.1,0.6-0.3C378.3,334.1,378.2,333.6,377.8,333.4L377.8,333.4z"/>
<path d="M496.1,236.7h2.7c0,10-8.1,18.1-18.1,18.1v1.6c0,0.2-0.2,0.3-0.3,0.2l-4.3-2.9c-0.1-0.1-0.1-0.2,0-0.4l4.3-2.9
	c0.1-0.1,0.3,0,0.3,0.2v1.6C489.2,252.1,496.1,245.2,496.1,236.7L496.1,236.7z M465.4,236.7h-2.7c0-10,8.1-18.1,18.1-18.1V217
	c0-0.2,0.2-0.3,0.3-0.2l4.3,2.9c0.1,0.1,0.1,0.2,0,0.4l-4.3,2.9c-0.1,0.1-0.3,0-0.3-0.2v-1.6C472.3,221.3,465.4,228.2,465.4,236.7
	L465.4,236.7z M484.8,236.7c0,2.3-1.8,4.1-4.1,4.1c-2.3,0-4.1-1.8-4.1-4.1c0-2.3,1.8-4.1,4.1-4.1C483,232.6,484.8,234.4,484.8,236.7
	z M482.5,226.1c0-0.4-0.3-0.7-0.7-0.7h-2c-0.4,0-0.7,0.3-0.7,0.7v1.7c-1.2,0.2-2.3,0.7-3.3,1.3l-1.2-1.2c-0.3-0.3-0.8-0.3-1.1,0
	l-1.5,1.5c-0.3,0.3-0.3,0.8,0,1.1l1.2,1.2c-0.7,1-1.1,2.1-1.3,3.3h-1.7c-0.4,0-0.7,0.3-0.7,0.7v2c0,0.4,0.3,0.7,0.7,0.7h1.7
	c0.2,1.2,0.7,2.3,1.3,3.3L472,243c-0.3,0.3-0.3,0.8,0,1.1l1.4,1.4c0.3,0.3,0.8,0.3,1.1,0l1.2-1.2c1,0.7,2.1,1.1,3.3,1.3v1.7
	c0,0.4,0.3,0.7,0.7,0.7h2c0.4,0,0.7-0.3,0.7-0.7v-1.7c1.2-0.2,2.3-0.7,3.3-1.3l1.2,1.2c0.3,0.3,0.8,0.3,1.1,0l1.4-1.4
	c0.3-0.3,0.3-0.8,0-1.1l-1.2-1.2c0.7-1,1.1-2.1,1.3-3.3h1.7c0.4,0,0.7-0.3,0.7-0.7v-2c0-0.4-0.3-0.7-0.7-0.7h-1.7
	c-0.2-1.2-0.7-2.3-1.3-3.3l1.2-1.2c0.3-0.3,0.3-0.8,0-1.1L488,228c-0.3-0.3-0.8-0.3-1.1,0l-1.2,1.2c-1-0.7-2.1-1.1-3.3-1.3
	L482.5,226.1L482.5,226.1z"/>
<path d="M359.1,446.3l-1.3,2.3c-8.7-4.9-11.8-15.9-7-24.6l-1.4-0.8c-0.1-0.1-0.1-0.3,0-0.4l4.6-2.3c0.1-0.1,0.3,0,0.3,0.2l0.5,5.1
	c0,0.1-0.2,0.3-0.3,0.2l-1.4-0.8C349,432.8,351.7,442.1,359.1,446.3L359.1,446.3z M374.1,419.4l1.3-2.4c8.7,4.9,11.8,15.9,7,24.6
	l1.4,0.8c0.1,0.1,0.1,0.3,0,0.4l-4.6,2.3c-0.1,0.1-0.3,0-0.3-0.2l-0.5-5.1c0-0.1,0.2-0.3,0.3-0.2l1.4,0.8
	C384.2,433,381.5,423.6,374.1,419.4L374.1,419.4z M364.6,436.4c-2-1.1-2.7-3.6-1.6-5.6c1.1-2,3.6-2.7,5.6-1.6c2,1.1,2.7,3.6,1.6,5.6
	S366.6,437.5,364.6,436.4z M375,439.6c0.4,0.2,0.8,0.1,1-0.3l1-1.8c0.2-0.4,0.1-0.8-0.3-1l-1.5-0.8c0.4-1.1,0.5-2.4,0.4-3.5l1.7-0.5
	c0.4-0.1,0.6-0.5,0.5-0.9l-0.6-2c-0.1-0.4-0.5-0.6-0.9-0.5l-1.7,0.5c-0.5-1-1.3-2-2.2-2.8l0.8-1.5c0.2-0.4,0.1-0.8-0.3-1l-1.8-1
	c-0.4-0.2-0.8-0.1-1,0.3l-0.8,1.5c-1.1-0.4-2.4-0.5-3.5-0.4l-0.5-1.7c-0.1-0.4-0.5-0.6-0.9-0.5l-1.9,0.5c-0.4,0.1-0.6,0.5-0.5,0.9
	l0.5,1.7c-1,0.5-2,1.3-2.8,2.2l-1.5-0.8c-0.4-0.2-0.8-0.1-1,0.3l-1,1.8c-0.2,0.4-0.1,0.8,0.3,1l1.5,0.8c-0.4,1.1-0.5,2.4-0.4,3.5
	l-1.7,0.5c-0.4,0.1-0.6,0.5-0.5,0.9l0.5,1.9c0.1,0.4,0.5,0.6,0.9,0.5l1.7-0.5c0.5,1,1.3,2,2.2,2.8l-0.8,1.5c-0.2,0.4-0.1,0.8,0.3,1
	l1.8,1c0.4,0.2,0.8,0.1,1-0.3l0.8-1.5c1.1,0.4,2.4,0.5,3.5,0.4l0.5,1.7c0.1,0.4,0.5,0.6,0.9,0.5l1.9-0.5c0.4-0.1,0.6-0.5,0.5-0.9
	l-0.5-1.7c1-0.5,2-1.3,2.8-2.2L375,439.6L375,439.6z"/>
<path d="M538.6,328.7l1,2.5c-9.2,3.8-19.8-0.7-23.6-9.9l-1.5,0.6c-0.1,0.1-0.3-0.1-0.3-0.2l1.1-5.1c0-0.1,0.2-0.2,0.3-0.1l4.3,2.8
	c0.1,0.1,0.1,0.3,0,0.4l-1.5,0.6C521.8,328.1,530.8,331.9,538.6,328.7L538.6,328.7z M527,300.2l-1-2.5c9.2-3.8,19.8,0.7,23.6,9.9
	l1.5-0.6c0.1-0.1,0.3,0.1,0.3,0.2l-1.1,5.1c0,0.1-0.2,0.2-0.3,0.1l-4.3-2.8c-0.1-0.1-0.1-0.3,0-0.4l1.5-0.6
	C543.9,300.8,534.9,297,527,300.2L527,300.2z M534.4,318.3c-2.1,0.9-4.5-0.1-5.3-2.3s0.1-4.5,2.3-5.3c2.1-0.9,4.5,0.1,5.3,2.3
	S536.5,317.4,534.4,318.3z M543.3,312.1c0.4-0.2,0.6-0.6,0.4-1l-0.8-1.9c-0.2-0.4-0.6-0.6-1-0.4l-1.6,0.6c-0.7-1-1.5-1.9-2.5-2.5
	l0.7-1.6c0.2-0.4,0-0.8-0.4-1l-1.9-0.8c-0.4-0.2-0.8,0-1,0.4l-0.7,1.6c-1.1-0.2-2.3-0.3-3.6,0l-0.6-1.6c-0.2-0.4-0.6-0.6-1-0.4
	l-1.9,0.8c-0.4,0.2-0.6,0.6-0.4,1l0.6,1.6c-1,0.7-1.9,1.5-2.5,2.5l-1.6-0.7c-0.4-0.2-0.8,0-1,0.4L522,311c-0.2,0.4,0,0.8,0.4,1
	l1.6,0.7c-0.2,1.1-0.3,2.3,0,3.6l-1.6,0.6c-0.4,0.2-0.6,0.6-0.4,1l0.8,1.9c0.2,0.4,0.6,0.6,1,0.4l1.6-0.6c0.7,1,1.5,1.9,2.5,2.5
	l-0.7,1.6c-0.2,0.4,0,0.8,0.4,1l1.9,0.8c0.4,0.2,0.8,0,1-0.4l0.7-1.6c1.1,0.2,2.3,0.3,3.6,0l0.6,1.6c0.2,0.4,0.6,0.6,1,0.4l1.9-0.8
	c0.4-0.2,0.6-0.6,0.4-1l-0.6-1.6c1-0.7,1.9-1.5,2.5-2.5l1.6,0.7c0.4,0.2,0.8,0,1-0.4l0.8-1.9c0.2-0.4,0-0.8-0.4-1l-1.6-0.7
	c0.2-1.1,0.3-2.3,0-3.6L543.3,312.1L543.3,312.1z"/>
<path d="M309.6,202.4l1.8-2c7.4,6.7,8.1,18.1,1.4,25.6l1.2,1.1c0.1,0.1,0.1,0.3-0.1,0.3l-5,1.2c-0.1,0-0.3-0.1-0.3-0.2l0.7-5.1
	c0-0.1,0.2-0.2,0.3-0.1l1.2,1.1C316.4,217.8,315.9,208.1,309.6,202.4L309.6,202.4z M289,225.3l-1.8,2c-7.4-6.7-8.1-18.1-1.4-25.6
	l-1.2-1.1c-0.1-0.1-0.1-0.3,0.1-0.3l5-1.2c0.1,0,0.3,0.1,0.3,0.2l-0.7,5.1c0,0.1-0.2,0.2-0.3,0.1l-1.2-1.1
	C282.2,209.9,282.7,219.6,289,225.3L289,225.3z M302,210.8c1.7,1.5,1.8,4.1,0.3,5.8s-4.1,1.8-5.8,0.3c-1.7-1.5-1.8-4.1-0.3-5.8
	C297.8,209.4,300.3,209.3,302,210.8z M292.6,205.4c-0.3-0.3-0.8-0.2-1,0.1l-1.4,1.5c-0.3,0.3-0.2,0.8,0.1,1l1.3,1.1
	c-0.6,1-1,2.2-1.2,3.3l-1.7,0.1c-0.4,0-0.7,0.4-0.7,0.8l0.1,2.1c0,0.4,0.4,0.7,0.8,0.7l1.7-0.1c0.3,1.1,0.8,2.2,1.6,3.2l-1.1,1.3
	c-0.3,0.3-0.2,0.8,0.1,1l1.5,1.4c0.3,0.3,0.8,0.2,1-0.1l1.1-1.3c1,0.6,2.2,1,3.3,1.2l0.1,1.7c0,0.4,0.4,0.7,0.8,0.7l2-0.1
	c0.4,0,0.7-0.4,0.7-0.8l-0.1-1.7c1.1-0.3,2.2-0.8,3.2-1.6l1.3,1.1c0.3,0.3,0.8,0.2,1-0.1l1.4-1.5c0.3-0.3,0.2-0.8-0.1-1l-1.3-1.1
	c0.6-1,1-2.2,1.2-3.3l1.7-0.1c0.4,0,0.7-0.4,0.7-0.8l-0.1-2c0-0.4-0.4-0.7-0.8-0.7l-1.7,0.1c-0.3-1.1-0.8-2.2-1.6-3.2l1.1-1.3
	c0.3-0.3,0.2-0.8-0.1-1l-1.5-1.4c-0.3-0.3-0.8-0.2-1,0.1l-1.1,1.3c-1-0.6-2.2-1-3.3-1.2l-0.1-1.7c0-0.4-0.4-0.7-0.8-0.7l-2,0.1
	c-0.4,0-0.7,0.4-0.7,0.8l0.1,1.7c-1.1,0.3-2.2,0.8-3.2,1.6L292.6,205.4L292.6,205.4z"/>
<path d="M255.7,310.4l-1.4-2.3c8.5-5.2,19.7-2.6,24.9,5.9l1.3-0.8c0.1-0.1,0.3,0,0.3,0.2l-0.3,5.2c0,0.1-0.1,0.2-0.3,0.2l-4.7-2.1
	c-0.1-0.1-0.2-0.3,0-0.4l1.3-0.8C272.4,308.2,263,306,255.7,310.4L255.7,310.4z M271.9,336.6l1.4,2.3c-8.5,5.2-19.7,2.6-24.9-5.9
	l-1.3,0.8c-0.1,0.1-0.3,0-0.3-0.2l0.3-5.2c0-0.1,0.1-0.2,0.3-0.2l4.7,2.1c0.1,0.1,0.2,0.3,0,0.4l-1.3,0.8
	C255.2,338.8,264.7,341.1,271.9,336.6L271.9,336.6z M261.6,320c1.9-1.2,4.4-0.6,5.6,1.3c1.2,1.9,0.6,4.4-1.3,5.6
	c-1.9,1.2-4.4,0.6-5.6-1.3C259.1,323.7,259.7,321.2,261.6,320z M253.8,327.5c-0.3,0.2-0.5,0.7-0.2,1l1.1,1.7c0.2,0.3,0.7,0.5,1,0.2
	l1.5-0.9c0.8,0.9,1.8,1.6,2.9,2.1l-0.4,1.7c-0.1,0.4,0.2,0.8,0.6,0.9l2,0.5c0.4,0.1,0.8-0.2,0.9-0.6l0.4-1.7c1.2,0,2.4-0.1,3.5-0.6
	l0.9,1.5c0.2,0.3,0.7,0.5,1,0.2l1.7-1.1c0.3-0.2,0.5-0.7,0.2-1l-0.9-1.5c0.9-0.8,1.6-1.8,2.1-2.9l1.7,0.4c0.4,0.1,0.8-0.2,0.9-0.6
	l0.5-2c0.1-0.4-0.2-0.8-0.6-0.9l-1.7-0.4c0-1.2-0.1-2.4-0.6-3.5l1.5-0.9c0.3-0.2,0.5-0.7,0.2-1l-1.1-1.7c-0.2-0.3-0.7-0.5-1-0.2
	l-1.5,0.9c-0.8-0.9-1.8-1.6-2.9-2.1l0.4-1.7c0.1-0.4-0.2-0.8-0.6-0.9l-2-0.5c-0.4-0.1-0.8,0.2-0.9,0.6l-0.4,1.7
	c-1.2,0-2.4,0.1-3.5,0.6l-0.9-1.5c-0.2-0.3-0.7-0.5-1-0.2l-1.7,1.1c-0.3,0.2-0.5,0.7-0.2,1l0.9,1.5c-0.9,0.8-1.6,1.8-2.1,2.9
	l-1.7-0.4c-0.4-0.1-0.8,0.2-0.9,0.6l-0.5,2c-0.1,0.4,0.2,0.8,0.6,0.9l1.7,0.4c0,1.2,0.1,2.4,0.6,3.5L253.8,327.5L253.8,327.5z"/>
</svg>
